<svg width="24" height="25" viewBox="0 0 24 25" fill="none" xmlns="http://www.w3.org/2000/svg">
<g id="fluent:ios-arrow-24-filled">
<path id="Vector" d="M12.727 4.187C12.8172 4.09153 12.8877 3.97923 12.9345 3.8565C12.9814 3.73377 13.0035 3.60302 12.9998 3.47172C12.9961 3.34042 12.9666 3.21113 12.9129 3.09125C12.8592 2.97136 12.7824 2.86322 12.687 2.773C12.5915 2.68279 12.4792 2.61226 12.3565 2.56544C12.2337 2.51863 12.103 2.49644 11.9717 2.50016C11.8404 2.50387 11.7111 2.53341 11.5912 2.58709C11.4713 2.64077 11.3632 2.71753 11.273 2.813L2.77298 11.813C2.59744 11.9987 2.49963 12.2445 2.49963 12.5C2.49963 12.7555 2.59744 13.0013 2.77298 13.187L11.273 22.188C11.3626 22.2856 11.4707 22.3643 11.591 22.4198C11.7114 22.4752 11.8415 22.5062 11.9739 22.5109C12.1063 22.5156 12.2383 22.4939 12.3623 22.4472C12.4862 22.4004 12.5997 22.3295 12.696 22.2386C12.7923 22.1476 12.8696 22.0384 12.9233 21.9173C12.9771 21.7963 13.0063 21.6657 13.0092 21.5333C13.0121 21.4008 12.9886 21.2691 12.9402 21.1458C12.8917 21.0225 12.8192 20.9101 12.727 20.815L4.87498 12.5L12.727 4.187Z" fill="black"/>
</g>
</svg>
